<svg width="268" height="131" xmlns="http://www.w3.org/2000/svg">
  <path id="svg_1" fill="white" d="m0.333297,10.43858c0,-5.52285 4.4772,-10 10,-10l248,0c5.523,0 10,4.48478 10,10.0076l0,49.4817c-0.062,0.0365 -0.122,0.0807 -0.179,0.1331l-5.026,4.643c-0.428,0.396 -0.428,1.0732 0,1.4692l5.026,4.643c0.057,0.0524 0.117,0.0966 0.179,0.1331l0,49.4813c0,5.523 -4.477,10.008 -10,10.008l-248,0c-5.5228,0 -10,-4.477 -10,-10l0,-49.4893c0.06197,-0.0365 0.12182,-0.0807 0.17855,-0.1331l5.02625,-4.643c0.4286,-0.396 0.4286,-1.0732 0,-1.4692l-5.02625,-4.643c-0.05673,-0.0524 -0.11658,-0.0966 -0.17855,-0.1331l0,-49.4893z" clip-rule="evenodd" fill-rule="evenodd"/>
</svg>